<?xml version="1.0" standalone="no"?>
<!DOCTYPE svg PUBLIC "-//W3C//DTD SVG 20010904//EN"
 "http://www.w3.org/TR/2001/REC-SVG-20010904/DTD/svg10.dtd">
<svg version="1.0" xmlns="http://www.w3.org/2000/svg"
 width="1008.000000pt" height="1008.000000pt" viewBox="0 0 1008.000000 1008.000000"
 preserveAspectRatio="xMidYMid meet">
<metadata>
Created by potrace 1.11, written by Peter Selinger 2001-2013
</metadata>
<g transform="translate(0.000000,1008.000000) scale(0.100000,-0.100000)"
fill="#000000" stroke="none">
<path d="M7578 7765 c-106 -29 -203 -115 -234 -207 -67 -203 97 -452 314 -474
145 -16 303 80 371 226 38 80 37 192 -2 272 -74 150 -273 232 -449 183z"/>
<path d="M6337 7589 c-120 -28 -245 -127 -299 -237 -29 -59 -33 -76 -33 -152
0 -71 4 -94 27 -142 50 -107 155 -189 285 -223 78 -20 139 -19 214 5 161 51
270 207 272 390 2 174 -92 309 -247 355 -54 16 -159 18 -219 4z"/>
<path d="M3125 7548 c-96 -34 -141 -146 -96 -243 84 -186 364 -127 365 77 0
121 -143 210 -269 166z"/>
<path d="M1815 7511 c-43 -19 -100 -78 -116 -118 -27 -72 1 -167 66 -221 83
-67 194 -68 271 0 113 100 100 274 -26 338 -50 26 -140 26 -195 1z"/>
<path d="M8779 7265 c-111 -36 -189 -153 -190 -287 -2 -137 64 -249 178 -305
74 -36 180 -37 268 -3 80 31 155 106 180 179 49 148 -33 320 -189 396 -70 34
-176 43 -247 20z"/>
<path d="M4240 6888 c-44 -31 -70 -82 -70 -141 0 -82 50 -146 132 -168 119
-32 234 85 197 199 -18 55 -37 80 -84 107 -56 33 -129 34 -175 3z"/>
<path d="M757 6836 c-80 -29 -134 -87 -162 -175 -16 -46 -16 -60 -5 -109 17
-79 83 -145 164 -163 105 -23 211 19 261 106 109 184 -62 410 -258 341z"/>
<path d="M5381 6800 c-240 -50 -423 -316 -383 -553 33 -191 172 -313 370 -325
286 -16 492 161 492 422 0 288 -231 508 -479 456z"/>
<path d="M9572 6194 c-96 -48 -152 -136 -160 -252 -6 -89 14 -147 70 -208 77
-84 233 -121 331 -80 57 25 112 80 137 138 31 72 25 190 -12 263 -75 145 -234
205 -366 139z"/>
<path d="M205 5699 c-22 -5 -61 -25 -86 -44 -124 -90 -142 -298 -36 -413 65
-70 189 -87 283 -39 85 43 141 120 151 206 20 171 -149 328 -312 290z"/>
<path d="M4905 5473 c-122 -44 -223 -135 -278 -250 -30 -65 -32 -74 -32 -189
0 -118 1 -121 37 -195 47 -95 130 -177 225 -222 65 -30 74 -32 188 -32 114 0
123 2 188 32 95 45 178 127 225 222 36 74 37 77 37 195 0 115 -1 124 -32 189
-45 95 -127 178 -222 225 -70 34 -81 37 -180 40 -82 2 -117 -2 -156 -15z"/>
<path d="M9785 4891 c-113 -29 -199 -123 -212 -230 -17 -149 109 -294 257
-294 219 -1 331 293 177 461 -48 52 -152 81 -222 63z"/>
<path d="M330 4429 c-55 -10 -86 -25 -128 -64 -117 -106 -110 -317 15 -437
138 -133 343 -93 435 85 30 60 37 172 13 234 -47 123 -203 208 -335 182z"/>
<path d="M4553 4135 c-203 -57 -323 -209 -323 -409 0 -284 222 -502 465 -457
250 46 438 310 397 554 -24 136 -96 232 -220 290 -57 26 -78 31 -166 34 -68 2
-118 -2 -153 -12z"/>
<path d="M9197 3675 c-89 -33 -144 -104 -154 -199 -7 -69 15 -132 64 -187 116
-129 331 -63 388 118 15 48 16 63 5 112 -28 127 -175 203 -303 156z"/>
<path d="M5695 3488 c-16 -6 -45 -24 -63 -41 -79 -75 -58 -203 43 -262 116
-68 245 4 245 138 0 80 -50 145 -128 167 -44 12 -58 12 -97 -2z"/>
<path d="M1100 3414 c-203 -56 -295 -246 -206 -423 126 -248 467 -270 577 -37
56 118 33 279 -53 372 -78 84 -205 120 -318 88z"/>
<path d="M3559 3231 c-160 -51 -272 -213 -273 -396 -1 -292 280 -452 561 -319
80 38 166 123 205 202 29 59 33 76 33 152 0 71 -4 94 -27 142 -83 177 -314
278 -499 219z"/>
<path d="M2299 2972 c-106 -35 -191 -111 -238 -212 -21 -45 -26 -70 -26 -135
0 -98 23 -153 88 -219 158 -157 422 -153 565 10 54 61 75 126 70 217 -12 235
-248 409 -459 339z"/>
<path d="M8116 2935 c-166 -59 -189 -297 -36 -375 50 -26 140 -26 195 -1 43
19 100 78 116 118 15 40 10 111 -11 152 -49 97 -162 142 -264 106z"/>
<path d="M6822 2869 c-81 -24 -146 -138 -123 -218 40 -135 221 -187 325 -92
57 52 71 132 37 206 -43 92 -137 133 -239 104z"/>
</g>
</svg>
